<svg width="1610" height="200" xmlns="http://www.w3.org/2000/svg" viewBox="0 0 1610 200">
  <defs>
    <style>
      .embr {
        fill: #BCA47D;
        stroke: #9D8A6B;
        stroke-width: 0.3;
      }
    </style>
  </defs>
  
  <!-- Single continuous vine flowing left to right - 15% longer -->
  <path d="M 20,100 Q 90,95 160,100 Q 230,105 300,100 Q 370,95 440,100 Q 510,105 580,100 Q 650,95 720,100 Q 790,105 860,100 Q 930,95 1000,100 Q 1070,105 1140,100 Q 1210,95 1280,100 Q 1350,105 1420,100 Q 1490,95 1560,100 L 1590,100" 
        fill="none" stroke="#9D8A6B" stroke-width="2.5" opacity="0.7"/>
  
  <!-- LEFT SIDE - FULLER Dense floral cluster (0-450) -->
  
  <!-- Main rose cluster 1 - LARGER & FULLER -->
  <path class="embr" d="M 60,100 Q 35,80 42,60 Q 48,50 60,48 Q 72,50 78,60 Q 85,80 60,100 Z" opacity="0.75"/>
  <path class="embr" d="M 60,100 Q 35,120 42,140 Q 48,150 60,152 Q 72,150 78,140 Q 85,120 60,100 Z" opacity="0.75"/>
  <ellipse cx="45" cy="92" rx="15" ry="20" class="embr" opacity="0.7"/>
  <ellipse cx="75" cy="92" rx="15" ry="20" class="embr" opacity="0.7"/>
  <ellipse cx="45" cy="108" rx="15" ry="20" class="embr" opacity="0.7"/>
  <ellipse cx="75" cy="108" rx="15" ry="20" class="embr" opacity="0.7"/>
  <ellipse cx="60" cy="85" rx="12" ry="16" class="embr" opacity="0.65"/>
  <ellipse cx="60" cy="115" rx="12" ry="16" class="embr" opacity="0.65"/>
  <circle cx="60" cy="100" r="12" fill="#8B7355" opacity="0.8"/>
  
  <!-- Second rose cluster - LARGER & FULLER -->
  <path class="embr" d="M 135,95 Q 115,78 120,60 Q 125,50 135,48 Q 145,50 150,60 Q 155,78 135,95 Z" opacity="0.75"/>
  <path class="embr" d="M 135,105 Q 115,122 120,140 Q 125,150 135,152 Q 145,150 150,140 Q 155,122 135,105 Z" opacity="0.75"/>
  <ellipse cx="122" cy="92" rx="14" ry="19" class="embr" opacity="0.7"/>
  <ellipse cx="148" cy="92" rx="14" ry="19" class="embr" opacity="0.7"/>
  <ellipse cx="122" cy="108" rx="14" ry="19" class="embr" opacity="0.7"/>
  <ellipse cx="148" cy="108" rx="14" ry="19" class="embr" opacity="0.7"/>
  <ellipse cx="135" cy="85" rx="11" ry="15" class="embr" opacity="0.65"/>
  <ellipse cx="135" cy="115" rx="11" ry="15" class="embr" opacity="0.65"/>
  <circle cx="135" cy="100" r="11" fill="#8B7355" opacity="0.8"/>
  
  <!-- Third rose cluster - LARGER & FULLER -->
  <path class="embr" d="M 210,97 Q 192,82 196,65 Q 200,55 210,53 Q 220,55 224,65 Q 228,82 210,97 Z" opacity="0.72"/>
  <path class="embr" d="M 210,103 Q 192,118 196,135 Q 200,145 210,147 Q 220,145 224,135 Q 228,118 210,103 Z" opacity="0.72"/>
  <ellipse cx="198" cy="94" rx="13" ry="18" class="embr" opacity="0.68"/>
  <ellipse cx="222" cy="94" rx="13" ry="18" class="embr" opacity="0.68"/>
  <ellipse cx="198" cy="106" rx="13" ry="18" class="embr" opacity="0.68"/>
  <ellipse cx="222" cy="106" rx="13" ry="18" class="embr" opacity="0.68"/>
  <circle cx="210" cy="100" r="10" fill="#8B7355" opacity="0.75"/>
  
  <!-- Fourth rose cluster - NEW -->
  <path class="embr" d="M 285,98 Q 270,84 274,68 Q 278,58 285,56 Q 292,58 296,68 Q 300,84 285,98 Z" opacity="0.7"/>
  <path class="embr" d="M 285,102 Q 270,116 274,132 Q 278,142 285,144 Q 292,142 296,132 Q 300,116 285,102 Z" opacity="0.7"/>
  <ellipse cx="275" cy="96" rx="12" ry="17" class="embr" opacity="0.66"/>
  <ellipse cx="295" cy="96" rx="12" ry="17" class="embr" opacity="0.66"/>
  <ellipse cx="275" cy="104" rx="12" ry="17" class="embr" opacity="0.66"/>
  <ellipse cx="295" cy="104" rx="12" ry="17" class="embr" opacity="0.66"/>
  <circle cx="285" cy="100" r="9" fill="#8B7355" opacity="0.72"/>
  
  <!-- FULLER Dense leaves clustered around flowers -->
  <ellipse cx="28" cy="78" rx="10" ry="22" transform="rotate(-28 28 78)" class="embr" opacity="0.65"/>
  <ellipse cx="25" cy="118" rx="10" ry="22" transform="rotate(28 25 118)" class="embr" opacity="0.65"/>
  <ellipse cx="90" cy="70" rx="10" ry="21" transform="rotate(-22 90 70)" class="embr" opacity="0.65"/>
  <ellipse cx="95" cy="130" rx="10" ry="21" transform="rotate(22 95 130)" class="embr" opacity="0.65"/>
  <ellipse cx="165" cy="72" rx="9" ry="20" transform="rotate(-20 165 72)" class="embr" opacity="0.62"/>
  <ellipse cx="170" cy="128" rx="9" ry="20" transform="rotate(20 170 128)" class="embr" opacity="0.62"/>
  <ellipse cx="240" cy="74" rx="9" ry="19" transform="rotate(-18 240 74)" class="embr" opacity="0.6"/>
  <ellipse cx="245" cy="126" rx="9" ry="19" transform="rotate(18 245 126)" class="embr" opacity="0.6"/>
  <ellipse cx="315" cy="76" rx="8" ry="18" transform="rotate(-15 315 76)" class="embr" opacity="0.58"/>
  <ellipse cx="320" cy="124" rx="8" ry="18" transform="rotate(15 320 124)" class="embr" opacity="0.58"/>
  
  <!-- MORE Small filler flowers -->
  <circle cx="100" cy="100" r="7" class="embr" opacity="0.6"/>
  <circle cx="175" cy="100" r="7" class="embr" opacity="0.58"/>
  <circle cx="250" cy="100" r="6" class="embr" opacity="0.56"/>
  <circle cx="80" cy="68" r="6" class="embr" opacity="0.58"/>
  <circle cx="155" cy="132" r="6" class="embr" opacity="0.58"/>
  <circle cx="115" cy="75" r="5" class="embr" opacity="0.56"/>
  <circle cx="190" cy="125" r="5" class="embr" opacity="0.56"/>
  
  <!-- MIDDLE SECTION (450-1050) - Fuller transition flowers -->
  
  <!-- Large center flower - FULLER -->
  <path class="embr" d="M 580,100 Q 560,85 565,68 Q 570,58 580,56 Q 590,58 595,68 Q 600,85 580,100 Z" opacity="0.68"/>
  <path class="embr" d="M 580,100 Q 560,115 565,132 Q 570,142 580,144 Q 590,142 595,132 Q 600,115 580,100 Z" opacity="0.68"/>
  <ellipse cx="570" cy="96" rx="11" ry="16" class="embr" opacity="0.65"/>
  <ellipse cx="590" cy="96" rx="11" ry="16" class="embr" opacity="0.65"/>
  <ellipse cx="570" cy="104" rx="11" ry="16" class="embr" opacity="0.65"/>
  <ellipse cx="590" cy="104" rx="11" ry="16" class="embr" opacity="0.65"/>
  <circle cx="580" cy="100" r="9" fill="#8B7355" opacity="0.7"/>
  
  <!-- MORE Medium flowers along vine -->
  <ellipse cx="380" cy="100" rx="10" ry="14" class="embr" opacity="0.6"/>
  <circle cx="380" cy="100" r="6" class="embr" opacity="0.58"/>
  
  <ellipse cx="480" cy="100" rx="9" ry="13" class="embr" opacity="0.58"/>
  <circle cx="480" cy="100" r="5" class="embr" opacity="0.55"/>
  
  <ellipse cx="680" cy="100" rx="9" ry="13" class="embr" opacity="0.55"/>
  <circle cx="680" cy="100" r="5" class="embr" opacity="0.52"/>
  
  <ellipse cx="780" cy="100" rx="8" ry="12" class="embr" opacity="0.52"/>
  <circle cx="780" cy="100" r="4" class="embr" opacity="0.5"/>
  
  <ellipse cx="880" cy="100" rx="7" ry="11" class="embr" opacity="0.5"/>
  <circle cx="880" cy="100" r="4" class="embr" opacity="0.48"/>
  
  <!-- MORE Medium leaves -->
  <ellipse cx="330" cy="85" rx="8" ry="16" transform="rotate(-12 330 85)" class="embr" opacity="0.55"/>
  <ellipse cx="335" cy="115" rx="8" ry="16" transform="rotate(12 335 115)" class="embr" opacity="0.55"/>
  <ellipse cx="430" cy="85" rx="7" ry="15" transform="rotate(-10 430 85)" class="embr" opacity="0.52"/>
  <ellipse cx="435" cy="115" rx="7" ry="15" transform="rotate(10 435 115)" class="embr" opacity="0.52"/>
  <ellipse cx="530" cy="83" rx="7" ry="14" transform="rotate(-8 530 83)" class="embr" opacity="0.5"/>
  <ellipse cx="535" cy="117" rx="7" ry="14" transform="rotate(8 535 117)" class="embr" opacity="0.5"/>
  <ellipse cx="630" cy="85" rx="6" ry="13" transform="rotate(-8 630 85)" class="embr" opacity="0.48"/>
  <ellipse cx="635" cy="115" rx="6" ry="13" transform="rotate(8 635 115)" class="embr" opacity="0.48"/>
  <ellipse cx="730" cy="87" rx="6" ry="12" transform="rotate(-6 730 87)" class="embr" opacity="0.46"/>
  <ellipse cx="735" cy="113" rx="6" ry="12" transform="rotate(6 735 113)" class="embr" opacity="0.46"/>
  <ellipse cx="830" cy="88" rx="5" ry="11" transform="rotate(-6 830 88)" class="embr" opacity="0.44"/>
  <ellipse cx="834" cy="112" rx="5" ry="11" transform="rotate(6 834 112)" class="embr" opacity="0.44"/>
  
  <!-- RIGHT SECTION (1050-1610) - Sparse leaves tapering -->
  
  <ellipse cx="980" cy="94" rx="5" ry="10" transform="rotate(-5 980 94)" class="embr" opacity="0.42"/>
  <ellipse cx="983" cy="106" rx="5" ry="10" transform="rotate(5 983 106)" class="embr" opacity="0.42"/>
  
  <ellipse cx="1080" cy="95" rx="4" ry="9" transform="rotate(-4 1080 95)" class="embr" opacity="0.38"/>
  <ellipse cx="1082" cy="105" rx="4" ry="9" transform="rotate(4 1082 105)" class="embr" opacity="0.38"/>
  
  <ellipse cx="1180" cy="96" rx="4" ry="8" transform="rotate(-3 1180 96)" class="embr" opacity="0.33"/>
  <ellipse cx="1181" cy="104" rx="4" ry="8" transform="rotate(3 1181 104)" class="embr" opacity="0.33"/>
  
  <ellipse cx="1280" cy="97" rx="3" ry="7" transform="rotate(-2 1280 97)" class="embr" opacity="0.28"/>
  <ellipse cx="1281" cy="103" rx="3" ry="7" transform="rotate(2 1281 103)" class="embr" opacity="0.28"/>
  
  <ellipse cx="1380" cy="98" rx="3" ry="6" transform="rotate(-2 1380 98)" class="embr" opacity="0.22"/>
  <ellipse cx="1380" cy="102" rx="3" ry="6" transform="rotate(2 1380 102)" class="embr" opacity="0.22"/>
  
  <ellipse cx="1480" cy="99" rx="2" ry="5" class="embr" opacity="0.18"/>
  <ellipse cx="1480" cy="101" rx="2" ry="5" class="embr" opacity="0.18"/>
  
  <ellipse cx="1560" cy="100" rx="2" ry="4" class="embr" opacity="0.12"/>
  
  <!-- Small buds along sparse section -->
  <circle cx="930" cy="100" r="3" class="embr" opacity="0.4"/>
  <circle cx="1130" cy="100" r="2" class="embr" opacity="0.32"/>
  <circle cx="1330" cy="100" r="2" class="embr" opacity="0.25"/>
  <circle cx="1530" cy="100" r="1.5" class="embr" opacity="0.18"/>
  
  <!-- TWO PROPER FLOWING BRANCHES WITH CASCADING FLOWERS -->
  
  <!-- BRANCH 1 - UPWARD DIAGONAL (position 400) -->
  <!-- Main branch stem flowing upward -->
  <path d="M 400,100 Q 380,75 360,50 Q 340,25 320,10" fill="none" stroke="#9D8A6B" stroke-width="2" opacity="0.65"/>
  
  <!-- Flower 1 - largest at base of branch -->
  <ellipse cx="390" cy="88" rx="14" ry="18" class="embr" opacity="0.7"/>
  <ellipse cx="385" cy="93" rx="11" ry="15" class="embr" opacity="0.68"/>
  <ellipse cx="395" cy="93" rx="11" ry="15" class="embr" opacity="0.68"/>
  <circle cx="390" cy="90" r="9" fill="#8B7355" opacity="0.72"/>
  <ellipse cx="383" cy="83" rx="8" ry="12" class="embr" opacity="0.65"/>
  <ellipse cx="397" cy="83" rx="8" ry="12" class="embr" opacity="0.65"/>
  
  <!-- Flower 2 - medium -->
  <ellipse cx="370" cy="65" rx="12" ry="16" class="embr" opacity="0.68"/>
  <ellipse cx="365" cy="70" rx="9" ry="13" class="embr" opacity="0.66"/>
  <ellipse cx="375" cy="70" rx="9" ry="13" class="embr" opacity="0.66"/>
  <circle cx="370" cy="67" r="7" fill="#8B7355" opacity="0.7"/>
  
  <!-- Flower 3 - medium -->
  <ellipse cx="350" cy="42" rx="11" ry="15" class="embr" opacity="0.65"/>
  <ellipse cx="345" cy="47" rx="8" ry="12" class="embr" opacity="0.63"/>
  <ellipse cx="355" cy="47" rx="8" ry="12" class="embr" opacity="0.63"/>
  <circle cx="350" cy="44" r="6" fill="#8B7355" opacity="0.68"/>
  
  <!-- Flower 4 - smaller at tip -->
  <ellipse cx="330" cy="22" rx="9" ry="13" class="embr" opacity="0.62"/>
  <ellipse cx="326" cy="26" rx="7" ry="10" class="embr" opacity="0.6"/>
  <ellipse cx="334" cy="26" rx="7" ry="10" class="embr" opacity="0.6"/>
  <circle cx="330" cy="24" r="5" fill="#8B7355" opacity="0.65"/>
  
  <!-- Flower 5 - smallest at tip -->
  <ellipse cx="320" cy="10" rx="7" ry="11" class="embr" opacity="0.58"/>
  <circle cx="320" cy="10" r="4" fill="#8B7355" opacity="0.6"/>
  
  <!-- Leaves along branch 1 -->
  <ellipse cx="395" cy="78" rx="7" ry="14" transform="rotate(-35 395 78)" class="embr" opacity="0.62"/>
  <ellipse cx="375" cy="56" rx="6" ry="13" transform="rotate(-38 375 56)" class="embr" opacity="0.6"/>
  <ellipse cx="355" cy="34" rx="6" ry="12" transform="rotate(-40 355 34)" class="embr" opacity="0.58"/>
  <ellipse cx="338" cy="16" rx="5" ry="11" transform="rotate(-42 338 16)" class="embr" opacity="0.56"/>
  <ellipse cx="385" cy="98" rx="6" ry="12" transform="rotate(-30 385 98)" class="embr" opacity="0.6"/>
  <ellipse cx="362" cy="75" rx="5" ry="11" transform="rotate(-35 362 75)" class="embr" opacity="0.58"/>
  
  <!-- Small buds on branch 1 -->
  <circle cx="382" cy="80" r="5" class="embr" opacity="0.6"/>
  <circle cx="362" cy="58" r="4" class="embr" opacity="0.58"/>
  <circle cx="342" cy="36" r="4" class="embr" opacity="0.56"/>
  
  
  <!-- BRANCH 2 - DOWNWARD DIAGONAL (position 650) -->
  <!-- Main branch stem flowing downward -->
  <path d="M 650,100 Q 670,125 690,150 Q 710,175 730,190" fill="none" stroke="#9D8A6B" stroke-width="2" opacity="0.6"/>
  
  <!-- Flower 1 - largest at base of branch -->
  <ellipse cx="660" cy="112" rx="13" ry="17" class="embr" opacity="0.65"/>
  <ellipse cx="655" cy="117" rx="10" ry="14" class="embr" opacity="0.63"/>
  <ellipse cx="665" cy="117" rx="10" ry="14" class="embr" opacity="0.63"/>
  <circle cx="660" cy="114" r="8" fill="#8B7355" opacity="0.68"/>
  <ellipse cx="653" cy="107" rx="7" ry="11" class="embr" opacity="0.6"/>
  <ellipse cx="667" cy="107" rx="7" ry="11" class="embr" opacity="0.6"/>
  
  <!-- Flower 2 - medium -->
  <ellipse cx="680" cy="135" rx="11" ry="15" class="embr" opacity="0.63"/>
  <ellipse cx="675" cy="140" rx="8" ry="12" class="embr" opacity="0.61"/>
  <ellipse cx="685" cy="140" rx="8" ry="12" class="embr" opacity="0.61"/>
  <circle cx="680" cy="137" r="7" fill="#8B7355" opacity="0.65"/>
  
  <!-- Flower 3 - medium -->
  <ellipse cx="700" cy="158" rx="10" ry="14" class="embr" opacity="0.6"/>
  <ellipse cx="695" cy="163" rx="7" ry="11" class="embr" opacity="0.58"/>
  <ellipse cx="705" cy="163" rx="7" ry="11" class="embr" opacity="0.58"/>
  <circle cx="700" cy="160" r="6" fill="#8B7355" opacity="0.62"/>
  
  <!-- Flower 4 - smaller -->
  <ellipse cx="720" cy="178" rx="8" ry="12" class="embr" opacity="0.57"/>
  <ellipse cx="716" cy="182" rx="6" ry="9" class="embr" opacity="0.55"/>
  <ellipse cx="724" cy="182" rx="6" ry="9" class="embr" opacity="0.55"/>
  <circle cx="720" cy="180" r="5" fill="#8B7355" opacity="0.6"/>
  
  <!-- Flower 5 - smallest at tip -->
  <ellipse cx="730" cy="190" rx="7" ry="10" class="embr" opacity="0.53"/>
  <circle cx="730" cy="190" r="4" fill="#8B7355" opacity="0.55"/>
  
  <!-- Leaves along branch 2 -->
  <ellipse cx="665" cy="122" rx="6" ry="13" transform="rotate(35 665 122)" class="embr" opacity="0.58"/>
  <ellipse cx="685" cy="145" rx="6" ry="12" transform="rotate(38 685 145)" class="embr" opacity="0.56"/>
  <ellipse cx="705" cy="168" rx="5" ry="11" transform="rotate(40 705 168)" class="embr" opacity="0.54"/>
  <ellipse cx="722" cy="184" rx="5" ry="10" transform="rotate(42 722 184)" class="embr" opacity="0.52"/>
  <ellipse cx="655" cy="102" rx="6" ry="12" transform="rotate(30 655 102)" class="embr" opacity="0.56"/>
  <ellipse cx="672" cy="128" rx="5" ry="11" transform="rotate(35 672 128)" class="embr" opacity="0.54"/>
  
  <!-- Small buds on branch 2 -->
  <circle cx="668" cy="120" r="4" class="embr" opacity="0.56"/>
  <circle cx="688" cy="148" r="4" class="embr" opacity="0.54"/>
  <circle cx="712" cy="172" r="3" class="embr" opacity="0.52"/>
  
  
  <!-- BRANCH 3 - UPWARD DIAGONAL (position 900) -->
  <path d="M 900,100 Q 880,70 860,45 Q 840,20 820,5" fill="none" stroke="#9D8A6B" stroke-width="2" opacity="0.55"/>
  
  <!-- Flowers cascading on branch 3 -->
  <ellipse cx="890" cy="85" rx="11" ry="15" class="embr" opacity="0.6"/>
  <ellipse cx="886" cy="90" rx="8" ry="12" class="embr" opacity="0.58"/>
  <ellipse cx="894" cy="90" rx="8" ry="12" class="embr" opacity="0.58"/>
  <circle cx="890" cy="87" r="7" fill="#8B7355" opacity="0.62"/>
  
  <ellipse cx="870" cy="60" rx="10" ry="13" class="embr" opacity="0.58"/>
  <ellipse cx="866" cy="64" rx="7" ry="10" class="embr" opacity="0.56"/>
  <ellipse cx="874" cy="64" rx="7" ry="10" class="embr" opacity="0.56"/>
  <circle cx="870" cy="62" r="6" fill="#8B7355" opacity="0.6"/>
  
  <ellipse cx="850" cy="38" rx="9" ry="12" class="embr" opacity="0.55"/>
  <ellipse cx="847" cy="42" rx="6" ry="9" class="embr" opacity="0.53"/>
  <ellipse cx="853" cy="42" rx="6" ry="9" class="embr" opacity="0.53"/>
  <circle cx="850" cy="40" r="5" fill="#8B7355" opacity="0.57"/>
  
  <ellipse cx="830" cy="18" rx="8" ry="11" class="embr" opacity="0.52"/>
  <circle cx="830" cy="18" r="4" fill="#8B7355" opacity="0.54"/>
  
  <ellipse cx="820" cy="5" rx="6" ry="9" class="embr" opacity="0.48"/>
  <circle cx="820" cy="5" r="3" fill="#8B7355" opacity="0.5"/>
  
  <!-- Leaves on branch 3 -->
  <ellipse cx="895" cy="75" rx="5" ry="11" transform="rotate(-35 895 75)" class="embr" opacity="0.54"/>
  <ellipse cx="875" cy="52" rx="5" ry="10" transform="rotate(-38 875 52)" class="embr" opacity="0.52"/>
  <ellipse cx="855" cy="30" rx="4" ry="9" transform="rotate(-40 855 30)" class="embr" opacity="0.5"/>
  <ellipse cx="835" cy="12" rx="4" ry="8" transform="rotate(-42 835 12)" class="embr" opacity="0.48"/>
  
  <circle cx="882" cy="78" r="4" class="embr" opacity="0.54"/>
  <circle cx="862" cy="54" r="3" class="embr" opacity="0.52"/>
  <circle cx="842" cy="32" r="3" class="embr" opacity="0.5"/>
  
  
  <!-- BRANCH 4 - DOWNWARD DIAGONAL (position 1100) -->
  <path d="M 1100,100 Q 1120,130 1140,155 Q 1160,180 1180,195" fill="none" stroke="#9D8A6B" stroke-width="1.8" opacity="0.48"/>
  
  <!-- Flowers cascading on branch 4 -->
  <ellipse cx="1110" cy="115" rx="10" ry="13" class="embr" opacity="0.52"/>
  <ellipse cx="1106" cy="119" rx="7" ry="10" class="embr" opacity="0.5"/>
  <ellipse cx="1114" cy="119" rx="7" ry="10" class="embr" opacity="0.5"/>
  <circle cx="1110" cy="117" r="6" fill="#8B7355" opacity="0.54"/>
  
  <ellipse cx="1130" cy="140" rx="9" ry="12" class="embr" opacity="0.5"/>
  <ellipse cx="1126" cy="144" rx="6" ry="9" class="embr" opacity="0.48"/>
  <ellipse cx="1134" cy="144" rx="6" ry="9" class="embr" opacity="0.48"/>
  <circle cx="1130" cy="142" r="5" fill="#8B7355" opacity="0.52"/>
  
  <ellipse cx="1150" cy="165" rx="8" ry="11" class="embr" opacity="0.47"/>
  <ellipse cx="1147" cy="168" rx="5" ry="8" class="embr" opacity="0.45"/>
  <ellipse cx="1153" cy="168" rx="5" ry="8" class="embr" opacity="0.45"/>
  <circle cx="1150" cy="167" r="4" fill="#8B7355" opacity="0.49"/>
  
  <ellipse cx="1170" cy="185" rx="7" ry="10" class="embr" opacity="0.44"/>
  <circle cx="1170" cy="185" r="3" fill="#8B7355" opacity="0.46"/>
  
  <ellipse cx="1180" cy="195" rx="6" ry="8" class="embr" opacity="0.4"/>
  <circle cx="1180" cy="195" r="3" fill="#8B7355" opacity="0.42"/>
  
  <!-- Leaves on branch 4 -->
  <ellipse cx="1115" cy="105" rx="4" ry="10" transform="rotate(32 1115 105)" class="embr" opacity="0.48"/>
  <ellipse cx="1135" cy="130" rx="4" ry="9" transform="rotate(35 1135 130)" class="embr" opacity="0.46"/>
  <ellipse cx="1155" cy="155" rx="4" ry="8" transform="rotate(38 1155 155)" class="embr" opacity="0.44"/>
  <ellipse cx="1172" cy="178" rx="3" ry="7" transform="rotate(40 1172 178)" class="embr" opacity="0.42"/>
  
  <circle cx="1118" cy="123" r="3" class="embr" opacity="0.48"/>
  <circle cx="1142" cy="150" r="3" class="embr" opacity="0.46"/>
  <circle cx="1162" cy="175" r="2" class="embr" opacity="0.44"/>
</svg>
