<svg width="1610" height="200" xmlns="http://www.w3.org/2000/svg" viewBox="0 0 1610 200">
  <defs>
    <style>
      .embr {
        fill: #BCA47D;
        stroke: #9D8A6B;
        stroke-width: 0.3;
      }
    </style>
  </defs>
  
  <!-- Single continuous vine flowing left to right - 15% longer -->
  <path d="M 20,100 Q 90,95 160,100 Q 230,105 300,100 Q 370,95 440,100 Q 510,105 580,100 Q 650,95 720,100 Q 790,105 860,100 Q 930,95 1000,100 Q 1070,105 1140,100 Q 1210,95 1280,100 Q 1350,105 1420,100 Q 1490,95 1560,100 L 1590,100" 
        fill="none" stroke="#9D8A6B" stroke-width="2.5" opacity="0.7"/>
  
  <!-- LEFT SIDE - FULLER Dense floral cluster (0-450) -->
  
  <!-- Main rose cluster 1 - LARGER & FULLER -->
  <path class="embr" d="M 60,100 Q 35,80 42,60 Q 48,50 60,48 Q 72,50 78,60 Q 85,80 60,100 Z" opacity="0.75"/>
  <path class="embr" d="M 60,100 Q 35,120 42,140 Q 48,150 60,152 Q 72,150 78,140 Q 85,120 60,100 Z" opacity="0.75"/>
  <ellipse cx="45" cy="92" rx="15" ry="20" class="embr" opacity="0.7"/>
  <ellipse cx="75" cy="92" rx="15" ry="20" class="embr" opacity="0.7"/>
  <ellipse cx="45" cy="108" rx="15" ry="20" class="embr" opacity="0.7"/>
  <ellipse cx="75" cy="108" rx="15" ry="20" class="embr" opacity="0.7"/>
  <ellipse cx="60" cy="85" rx="12" ry="16" class="embr" opacity="0.65"/>
  <ellipse cx="60" cy="115" rx="12" ry="16" class="embr" opacity="0.65"/>
  <circle cx="60" cy="100" r="12" fill="#8B7355" opacity="0.8"/>
  
  <!-- Second rose cluster - LARGER & FULLER -->
  <path class="embr" d="M 135,95 Q 115,78 120,60 Q 125,50 135,48 Q 145,50 150,60 Q 155,78 135,95 Z" opacity="0.75"/>
  <path class="embr" d="M 135,105 Q 115,122 120,140 Q 125,150 135,152 Q 145,150 150,140 Q 155,122 135,105 Z" opacity="0.75"/>
  <ellipse cx="122" cy="92" rx="14" ry="19" class="embr" opacity="0.7"/>
  <ellipse cx="148" cy="92" rx="14" ry="19" class="embr" opacity="0.7"/>
  <ellipse cx="122" cy="108" rx="14" ry="19" class="embr" opacity="0.7"/>
  <ellipse cx="148" cy="108" rx="14" ry="19" class="embr" opacity="0.7"/>
  <ellipse cx="135" cy="85" rx="11" ry="15" class="embr" opacity="0.65"/>
  <ellipse cx="135" cy="115" rx="11" ry="15" class="embr" opacity="0.65"/>
  <circle cx="135" cy="100" r="11" fill="#8B7355" opacity="0.8"/>
  
  <!-- Third rose cluster - LARGER & FULLER -->
  <path class="embr" d="M 210,97 Q 192,82 196,65 Q 200,55 210,53 Q 220,55 224,65 Q 228,82 210,97 Z" opacity="0.72"/>
  <path class="embr" d="M 210,103 Q 192,118 196,135 Q 200,145 210,147 Q 220,145 224,135 Q 228,118 210,103 Z" opacity="0.72"/>
  <ellipse cx="198" cy="94" rx="13" ry="18" class="embr" opacity="0.68"/>
  <ellipse cx="222" cy="94" rx="13" ry="18" class="embr" opacity="0.68"/>
  <ellipse cx="198" cy="106" rx="13" ry="18" class="embr" opacity="0.68"/>
  <ellipse cx="222" cy="106" rx="13" ry="18" class="embr" opacity="0.68"/>
  <circle cx="210" cy="100" r="10" fill="#8B7355" opacity="0.75"/>
  
  <!-- Fourth rose cluster - NEW -->
  <path class="embr" d="M 285,98 Q 270,84 274,68 Q 278,58 285,56 Q 292,58 296,68 Q 300,84 285,98 Z" opacity="0.7"/>
  <path class="embr" d="M 285,102 Q 270,116 274,132 Q 278,142 285,144 Q 292,142 296,132 Q 300,116 285,102 Z" opacity="0.7"/>
  <ellipse cx="275" cy="96" rx="12" ry="17" class="embr" opacity="0.66"/>
  <ellipse cx="295" cy="96" rx="12" ry="17" class="embr" opacity="0.66"/>
  <ellipse cx="275" cy="104" rx="12" ry="17" class="embr" opacity="0.66"/>
  <ellipse cx="295" cy="104" rx="12" ry="17" class="embr" opacity="0.66"/>
  <circle cx="285" cy="100" r="9" fill="#8B7355" opacity="0.72"/>
  
  <!-- FULLER Dense leaves clustered around flowers -->
  <ellipse cx="28" cy="78" rx="10" ry="22" transform="rotate(-28 28 78)" class="embr" opacity="0.65"/>
  <ellipse cx="25" cy="118" rx="10" ry="22" transform="rotate(28 25 118)" class="embr" opacity="0.65"/>
  <ellipse cx="90" cy="70" rx="10" ry="21" transform="rotate(-22 90 70)" class="embr" opacity="0.65"/>
  <ellipse cx="95" cy="130" rx="10" ry="21" transform="rotate(22 95 130)" class="embr" opacity="0.65"/>
  <ellipse cx="165" cy="72" rx="9" ry="20" transform="rotate(-20 165 72)" class="embr" opacity="0.62"/>
  <ellipse cx="170" cy="128" rx="9" ry="20" transform="rotate(20 170 128)" class="embr" opacity="0.62"/>
  <ellipse cx="240" cy="74" rx="9" ry="19" transform="rotate(-18 240 74)" class="embr" opacity="0.6"/>
  <ellipse cx="245" cy="126" rx="9" ry="19" transform="rotate(18 245 126)" class="embr" opacity="0.6"/>
  <ellipse cx="315" cy="76" rx="8" ry="18" transform="rotate(-15 315 76)" class="embr" opacity="0.58"/>
  <ellipse cx="320" cy="124" rx="8" ry="18" transform="rotate(15 320 124)" class="embr" opacity="0.58"/>
  
  <!-- MORE Small filler flowers -->
  <circle cx="100" cy="100" r="7" class="embr" opacity="0.6"/>
  <circle cx="175" cy="100" r="7" class="embr" opacity="0.58"/>
  <circle cx="250" cy="100" r="6" class="embr" opacity="0.56"/>
  <circle cx="80" cy="68" r="6" class="embr" opacity="0.58"/>
  <circle cx="155" cy="132" r="6" class="embr" opacity="0.58"/>
  <circle cx="115" cy="75" r="5" class="embr" opacity="0.56"/>
  <circle cx="190" cy="125" r="5" class="embr" opacity="0.56"/>
  
  <!-- MIDDLE SECTION (450-1050) - Fuller transition flowers -->
  
  <!-- Large center flower - FULLER -->
  <path class="embr" d="M 580,100 Q 560,85 565,68 Q 570,58 580,56 Q 590,58 595,68 Q 600,85 580,100 Z" opacity="0.68"/>
  <path class="embr" d="M 580,100 Q 560,115 565,132 Q 570,142 580,144 Q 590,142 595,132 Q 600,115 580,100 Z" opacity="0.68"/>
  <ellipse cx="570" cy="96" rx="11" ry="16" class="embr" opacity="0.65"/>
  <ellipse cx="590" cy="96" rx="11" ry="16" class="embr" opacity="0.65"/>
  <ellipse cx="570" cy="104" rx="11" ry="16" class="embr" opacity="0.65"/>
  <ellipse cx="590" cy="104" rx="11" ry="16" class="embr" opacity="0.65"/>
  <circle cx="580" cy="100" r="9" fill="#8B7355" opacity="0.7"/>
  
  <!-- MORE Medium flowers along vine -->
  <ellipse cx="380" cy="100" rx="10" ry="14" class="embr" opacity="0.6"/>
  <circle cx="380" cy="100" r="6" class="embr" opacity="0.58"/>
  
  <ellipse cx="480" cy="100" rx="9" ry="13" class="embr" opacity="0.58"/>
  <circle cx="480" cy="100" r="5" class="embr" opacity="0.55"/>
  
  <ellipse cx="680" cy="100" rx="9" ry="13" class="embr" opacity="0.55"/>
  <circle cx="680" cy="100" r="5" class="embr" opacity="0.52"/>
  
  <ellipse cx="780" cy="100" rx="8" ry="12" class="embr" opacity="0.52"/>
  <circle cx="780" cy="100" r="4" class="embr" opacity="0.5"/>
  
  <ellipse cx="880" cy="100" rx="7" ry="11" class="embr" opacity="0.5"/>
  <circle cx="880" cy="100" r="4" class="embr" opacity="0.48"/>
  
  <!-- MORE Medium leaves -->
  <ellipse cx="330" cy="85" rx="8" ry="16" transform="rotate(-12 330 85)" class="embr" opacity="0.55"/>
  <ellipse cx="335" cy="115" rx="8" ry="16" transform="rotate(12 335 115)" class="embr" opacity="0.55"/>
  <ellipse cx="430" cy="85" rx="7" ry="15" transform="rotate(-10 430 85)" class="embr" opacity="0.52"/>
  <ellipse cx="435" cy="115" rx="7" ry="15" transform="rotate(10 435 115)" class="embr" opacity="0.52"/>
  <ellipse cx="530" cy="83" rx="7" ry="14" transform="rotate(-8 530 83)" class="embr" opacity="0.5"/>
  <ellipse cx="535" cy="117" rx="7" ry="14" transform="rotate(8 535 117)" class="embr" opacity="0.5"/>
  <ellipse cx="630" cy="85" rx="6" ry="13" transform="rotate(-8 630 85)" class="embr" opacity="0.48"/>
  <ellipse cx="635" cy="115" rx="6" ry="13" transform="rotate(8 635 115)" class="embr" opacity="0.48"/>
  <ellipse cx="730" cy="87" rx="6" ry="12" transform="rotate(-6 730 87)" class="embr" opacity="0.46"/>
  <ellipse cx="735" cy="113" rx="6" ry="12" transform="rotate(6 735 113)" class="embr" opacity="0.46"/>
  <ellipse cx="830" cy="88" rx="5" ry="11" transform="rotate(-6 830 88)" class="embr" opacity="0.44"/>
  <ellipse cx="834" cy="112" rx="5" ry="11" transform="rotate(6 834 112)" class="embr" opacity="0.44"/>
  
  <!-- RIGHT SECTION (1050-1610) - Sparse leaves tapering -->
  
  <ellipse cx="980" cy="94" rx="5" ry="10" transform="rotate(-5 980 94)" class="embr" opacity="0.42"/>
  <ellipse cx="983" cy="106" rx="5" ry="10" transform="rotate(5 983 106)" class="embr" opacity="0.42"/>
  
  <ellipse cx="1080" cy="95" rx="4" ry="9" transform="rotate(-4 1080 95)" class="embr" opacity="0.38"/>
  <ellipse cx="1082" cy="105" rx="4" ry="9" transform="rotate(4 1082 105)" class="embr" opacity="0.38"/>
  
  <ellipse cx="1180" cy="96" rx="4" ry="8" transform="rotate(-3 1180 96)" class="embr" opacity="0.33"/>
  <ellipse cx="1181" cy="104" rx="4" ry="8" transform="rotate(3 1181 104)" class="embr" opacity="0.33"/>
  
  <ellipse cx="1280" cy="97" rx="3" ry="7" transform="rotate(-2 1280 97)" class="embr" opacity="0.28"/>
  <ellipse cx="1281" cy="103" rx="3" ry="7" transform="rotate(2 1281 103)" class="embr" opacity="0.28"/>
  
  <ellipse cx="1380" cy="98" rx="3" ry="6" transform="rotate(-2 1380 98)" class="embr" opacity="0.22"/>
  <ellipse cx="1380" cy="102" rx="3" ry="6" transform="rotate(2 1380 102)" class="embr" opacity="0.22"/>
  
  <ellipse cx="1480" cy="99" rx="2" ry="5" class="embr" opacity="0.18"/>
  <ellipse cx="1480" cy="101" rx="2" ry="5" class="embr" opacity="0.18"/>
  
  <ellipse cx="1560" cy="100" rx="2" ry="4" class="embr" opacity="0.12"/>
  
  <!-- Small buds along sparse section -->
  <circle cx="930" cy="100" r="3" class="embr" opacity="0.4"/>
  <circle cx="1130" cy="100" r="2" class="embr" opacity="0.32"/>
  <circle cx="1330" cy="100" r="2" class="embr" opacity="0.25"/>
  <circle cx="1530" cy="100" r="1.5" class="embr" opacity="0.18"/>
</svg>
